<svg width="63" height="16" viewBox="0 0 63 16" fill="none" xmlns="http://www.w3.org/2000/svg">
<path opacity="0.8" d="M3.19377 15H0.47735V0.738806H9.30571V3.45522H3.19377V6.51119H8.28705V9.22761H3.19377V15ZM12.3849 5.76842C13.4743 4.67903 14.7971 4.13433 16.3534 4.13433C17.9097 4.13433 19.2325 4.67903 20.3219 5.76842C21.4113 6.85782 21.956 8.18066 21.956 9.73694C21.956 11.2932 21.4113 12.6161 20.3219 13.7055C19.2325 14.7949 17.9097 15.3396 16.3534 15.3396C14.7971 15.3396 13.4743 14.7949 12.3849 13.7055C11.2955 12.6161 10.7508 11.2932 10.7508 9.73694C10.7508 8.18066 11.2955 6.85782 12.3849 5.76842ZM14.3161 11.7743C14.882 12.3402 15.5611 12.6231 16.3534 12.6231C17.1457 12.6231 17.8248 12.3402 18.3907 11.7743C18.9566 11.2083 19.2396 10.5292 19.2396 9.73694C19.2396 8.94465 18.9566 8.26555 18.3907 7.69963C17.8248 7.13371 17.1457 6.85075 16.3534 6.85075C15.5611 6.85075 14.882 7.13371 14.3161 7.69963C13.7502 8.26555 13.4672 8.94465 13.4672 9.73694C13.4672 10.5292 13.7502 11.2083 14.3161 11.7743ZM24.0819 0.0597013H26.7983V15H24.0819V0.0597013ZM29.7704 0.0597013H32.4868V15H29.7704V0.0597013ZM36.248 5.76842C37.3374 4.67903 38.6603 4.13433 40.2166 4.13433C41.7728 4.13433 43.0957 4.67903 44.1851 5.76842C45.2745 6.85782 45.8192 8.18066 45.8192 9.73694C45.8192 11.2932 45.2745 12.6161 44.1851 13.7055C43.0957 14.7949 41.7728 15.3396 40.2166 15.3396C38.6603 15.3396 37.3374 14.7949 36.248 13.7055C35.1587 12.6161 34.614 11.2932 34.614 9.73694C34.614 8.18066 35.1587 6.85782 36.248 5.76842ZM38.1793 11.7743C38.7452 12.3402 39.4243 12.6231 40.2166 12.6231C41.0089 12.6231 41.688 12.3402 42.2539 11.7743C42.8198 11.2083 43.1028 10.5292 43.1028 9.73694C43.1028 8.94465 42.8198 8.26555 42.2539 7.69963C41.688 7.13371 41.0089 6.85075 40.2166 6.85075C39.4243 6.85075 38.7452 7.13371 38.1793 7.69963C37.6133 8.26555 37.3304 8.94465 37.3304 9.73694C37.3304 10.5292 37.6133 11.2083 38.1793 11.7743ZM59.6596 4.47388H62.7155L59.1503 15H56.6885L54.7361 9.22761L52.7836 15H50.3219L46.7566 4.47388H49.8126L51.6801 11.2649L53.7174 4.47388H55.7547L57.792 11.2649L59.6596 4.47388Z" fill="#3D3D3D"/>
</svg>
