<svg width="155" height="50" viewBox="0 0 155 50" fill="none" xmlns="http://www.w3.org/2000/svg">
<g filter="url(#filter0_d_91_7539)">
<mask id="mask0_91_7539" style="mask-type:alpha" maskUnits="userSpaceOnUse" x="11" y="11" width="131" height="26">
<path fill-rule="evenodd" clip-rule="evenodd" d="M23.4862 13.1601C22.6767 12.7458 21.7173 12.7458 20.9077 13.1601C20.3724 13.4341 20.0025 13.9495 19.6778 14.5251C19.3481 15.1094 18.9874 15.9052 18.5355 16.902L18.5355 16.902L18.5192 16.9381C18.2264 17.584 18.1404 17.7538 18.0296 17.8787C17.9089 18.0147 17.7606 18.1236 17.5947 18.1981C17.4424 18.2665 17.2543 18.2978 16.5495 18.3842L16.5101 18.389C15.4949 18.5135 14.6802 18.6133 14.0594 18.7466C13.4428 18.879 12.8696 19.0713 12.4551 19.4812C11.8366 20.093 11.5339 20.9552 11.6341 21.8193C11.7012 22.3982 12.028 22.9063 12.426 23.3947C12.8266 23.8864 13.3992 24.4728 14.1127 25.2035L14.1127 25.2035L14.1404 25.2319L14.6654 25.7697C15.2055 26.3228 15.3435 26.4779 15.4219 26.6405C15.5027 26.8082 15.5461 26.9915 15.5492 27.1777C15.5522 27.3581 15.4984 27.5586 15.2641 28.2954L15.2247 28.4191L15.2128 28.4565C14.846 29.6097 14.5552 30.5236 14.394 31.2338C14.2372 31.9244 14.1555 32.6003 14.3892 33.1818C14.7494 34.0781 15.542 34.7287 16.4913 34.9075C17.1072 35.0235 17.7541 34.8118 18.401 34.5235C19.0663 34.227 19.9061 33.7639 20.9658 33.1795L21 33.1606C21.6024 32.8284 21.7676 32.7461 21.9263 32.7119C22.1047 32.6735 22.2893 32.6735 22.4677 32.7119C22.6263 32.7461 22.7916 32.8284 23.3939 33.1606L23.4282 33.1794C24.4879 33.7639 25.3277 34.227 25.993 34.5235C26.6398 34.8118 27.2868 35.0235 27.9027 34.9075C28.852 34.7287 29.6445 34.0781 30.0047 33.1817C30.2384 32.6003 30.1568 31.9244 30 31.2338C29.8387 30.5236 29.548 29.6097 29.1811 28.4565L29.1693 28.4191L29.1299 28.2954C28.8955 27.5586 28.8418 27.3581 28.8448 27.1777C28.8478 26.9915 28.8913 26.8082 28.9721 26.6405C29.0504 26.4779 29.1884 26.3228 29.7285 25.7697L30.2536 25.2319L30.2813 25.2035L30.2813 25.2035C30.9948 24.4728 31.5673 23.8864 31.9679 23.3947C32.3659 22.9063 32.6927 22.3982 32.7598 21.8193C32.8601 20.9552 32.5573 20.093 31.9388 19.4812C31.5244 19.0713 30.9511 18.879 30.3345 18.7466C29.7138 18.6133 28.8991 18.5135 27.8839 18.3891L27.8838 18.389L27.8445 18.3842C27.1396 18.2978 26.9515 18.2665 26.7993 18.1981C26.6333 18.1236 26.4851 18.0147 26.3644 17.8787C26.2535 17.7538 26.1676 17.584 25.8748 16.9381L25.8584 16.902C25.4066 15.9052 25.0458 15.1094 24.7162 14.5251C24.3915 13.9495 24.0216 13.4341 23.4862 13.1601Z" fill="#22272F"/>
<path fill-rule="evenodd" clip-rule="evenodd" d="M50.5429 13.1601C49.7333 12.7458 48.7739 12.7458 47.9644 13.1601C47.429 13.4341 47.0591 13.9495 46.7344 14.5251C46.4048 15.1094 46.044 15.9052 45.5922 16.902L45.5922 16.902L45.5758 16.9381C45.283 17.584 45.1971 17.7538 45.0862 17.8787C44.9655 18.0147 44.8173 18.1236 44.6513 18.1981C44.4991 18.2665 44.311 18.2978 43.6061 18.3842L43.5668 18.389C42.5515 18.5135 41.7368 18.6133 41.116 18.7466C40.4995 18.879 39.9262 19.0713 39.5118 19.4812C38.8933 20.093 38.5905 20.9552 38.6907 21.8193C38.7579 22.3982 39.0846 22.9063 39.4826 23.3947C39.8833 23.8864 40.4558 24.4728 41.1693 25.2035L41.1693 25.2035L41.197 25.2319L41.7221 25.7697C42.2622 26.3228 42.4002 26.4779 42.4785 26.6405C42.5593 26.8082 42.6028 26.9915 42.6058 27.1777C42.6088 27.3581 42.5551 27.5586 42.3207 28.2954L42.2813 28.4191L42.2694 28.4565C41.9026 29.6097 41.6119 30.5236 41.4506 31.2338C41.2938 31.9244 41.2121 32.6003 41.4458 33.1818C41.8061 34.0781 42.5986 34.7287 43.5479 34.9075C44.1638 35.0235 44.8108 34.8118 45.4576 34.5235C46.1229 34.227 46.9627 33.7639 48.0224 33.1795L48.0567 33.1606C48.659 32.8284 48.8243 32.7461 48.9829 32.7119C49.1613 32.6735 49.3459 32.6735 49.5243 32.7119C49.683 32.7461 49.8482 32.8284 50.4506 33.1606L50.4848 33.1794C51.5445 33.7639 52.3843 34.227 53.0496 34.5235C53.6965 34.8118 54.3434 35.0235 54.9593 34.9075C55.9086 34.7287 56.7012 34.0781 57.0614 33.1817C57.2951 32.6003 57.2134 31.9244 57.0566 31.2338C56.8954 30.5236 56.6046 29.6097 56.2378 28.4565L56.2259 28.4191L56.1865 28.2954C55.9522 27.5586 55.8984 27.3581 55.9014 27.1777C55.9045 26.9915 55.9479 26.8082 56.0287 26.6405C56.1071 26.4779 56.2451 26.3228 56.7852 25.7697L57.3102 25.2319L57.3379 25.2035L57.338 25.2035C58.0514 24.4728 58.624 23.8864 59.0246 23.3947C59.4226 22.9063 59.7493 22.3982 59.8165 21.8193C59.9167 20.9552 59.614 20.093 58.9955 19.4812C58.581 19.0713 58.0077 18.879 57.3912 18.7466C56.7704 18.6133 55.9558 18.5135 54.9405 18.3891L54.9405 18.389L54.9011 18.3842C54.1963 18.2978 54.0082 18.2665 53.8559 18.1981C53.69 18.1236 53.5417 18.0147 53.421 17.8787C53.3102 17.7538 53.2242 17.584 52.9314 16.9381L52.915 16.902C52.4632 15.9052 52.1025 15.1094 51.7728 14.5251C51.4481 13.9495 51.0782 13.4341 50.5429 13.1601Z" fill="#22272F"/>
<path fill-rule="evenodd" clip-rule="evenodd" d="M77.5995 13.1601C76.7899 12.7458 75.8306 12.7458 75.021 13.1601C74.4857 13.4341 74.1158 13.9495 73.7911 14.5251C73.4614 15.1094 73.1007 15.9052 72.6488 16.902L72.6488 16.902L72.6325 16.9381C72.3397 17.584 72.2537 17.7538 72.1429 17.8787C72.0221 18.0147 71.8739 18.1236 71.708 18.1981C71.5557 18.2665 71.3676 18.2978 70.6627 18.3842L70.6234 18.389C69.6081 18.5135 68.7935 18.6133 68.1727 18.7466C67.5561 18.879 66.9828 19.0713 66.5684 19.4812C65.9499 20.093 65.6472 20.9552 65.7474 21.8193C65.8145 22.3982 66.1413 22.9063 66.5393 23.3947C66.9399 23.8864 67.5125 24.4728 68.2259 25.2035L68.2259 25.2035L68.2537 25.2319L68.7787 25.7697C69.3188 26.3228 69.4568 26.4779 69.5351 26.6405C69.616 26.8082 69.6594 26.9915 69.6625 27.1777C69.6654 27.3581 69.6117 27.5586 69.3774 28.2954L69.338 28.4191L69.3261 28.4565C68.9592 29.6097 68.6685 30.5236 68.5073 31.2338C68.3505 31.9244 68.2688 32.6003 68.5025 33.1818C68.8627 34.0781 69.6553 34.7287 70.6046 34.9075C71.2204 35.0235 71.8674 34.8118 72.5143 34.5235C73.1795 34.227 74.0194 33.7639 75.0791 33.1795L75.1133 33.1606C75.7156 32.8284 75.8809 32.7461 76.0395 32.7119C76.218 32.6735 76.4025 32.6735 76.581 32.7119C76.7396 32.7461 76.9049 32.8284 77.5072 33.1606L77.5414 33.1794C78.6011 33.7639 79.441 34.227 80.1062 34.5235C80.7531 34.8118 81.4001 35.0235 82.0159 34.9075C82.9653 34.7287 83.7578 34.0781 84.118 33.1817C84.3517 32.6003 84.27 31.9244 84.1133 31.2338C83.952 30.5236 83.6613 29.6097 83.2944 28.4565L83.2825 28.4191L83.2432 28.2954C83.0088 27.5586 82.9551 27.3581 82.958 27.1777C82.9611 26.9915 83.0045 26.8082 83.0854 26.6405C83.1637 26.4779 83.3017 26.3228 83.8418 25.7697L84.3668 25.2319L84.3946 25.2035L84.3946 25.2035C85.1081 24.4728 85.6806 23.8864 86.0812 23.3947C86.4792 22.9063 86.806 22.3982 86.8731 21.8193C86.9734 20.9552 86.6706 20.093 86.0521 19.4812C85.6377 19.0713 85.0644 18.879 84.4478 18.7466C83.8271 18.6133 83.0124 18.5135 81.9972 18.3891L81.9971 18.389L81.9578 18.3842C81.2529 18.2978 81.0648 18.2665 80.9125 18.1981C80.7466 18.1236 80.5984 18.0147 80.4776 17.8787C80.3668 17.7538 80.2808 17.584 79.988 16.9381L79.9717 16.902C79.5198 15.9052 79.1591 15.1094 78.8295 14.5251C78.5048 13.9495 78.1348 13.4341 77.5995 13.1601Z" fill="#22272F"/>
<path fill-rule="evenodd" clip-rule="evenodd" d="M104.658 13.1601C103.849 12.7458 102.889 12.7458 102.08 13.1601C101.544 13.4341 101.174 13.9495 100.85 14.5251C100.52 15.1094 100.159 15.9052 99.7074 16.902L99.7074 16.902L99.6911 16.9381C99.3983 17.584 99.3123 17.7538 99.2015 17.8787C99.0807 18.0147 98.9325 18.1236 98.7666 18.1981C98.6143 18.2665 98.4262 18.2978 97.7213 18.3842L97.682 18.389C96.6667 18.5135 95.8521 18.6133 95.2313 18.7466C94.6147 18.879 94.0414 19.0713 93.627 19.4812C93.0085 20.093 92.7057 20.9552 92.806 21.8193C92.8731 22.3982 93.1999 22.9063 93.5979 23.3947C93.9985 23.8864 94.5711 24.4728 95.2845 25.2035L95.2845 25.2035L95.3123 25.2319L95.8373 25.7697C96.3774 26.3228 96.5154 26.4779 96.5937 26.6405C96.6746 26.8082 96.718 26.9915 96.7211 27.1777C96.724 27.3581 96.6703 27.5586 96.4359 28.2954L96.3966 28.4191L96.3847 28.4565C96.0178 29.6097 95.7271 30.5236 95.5658 31.2338C95.4091 31.9244 95.3274 32.6003 95.5611 33.1818C95.9213 34.0781 96.7139 34.7287 97.6632 34.9075C98.279 35.0235 98.926 34.8118 99.5729 34.5235C100.238 34.227 101.078 33.7639 102.138 33.1795L102.172 33.1606C102.774 32.8284 102.939 32.7461 103.098 32.7119C103.277 32.6735 103.461 32.6735 103.64 32.7119C103.798 32.7461 103.963 32.8284 104.566 33.1606L104.6 33.1794C105.66 33.7639 106.5 34.227 107.165 34.5235C107.812 34.8118 108.459 35.0235 109.075 34.9075C110.024 34.7287 110.816 34.0781 111.177 33.1817C111.41 32.6003 111.329 31.9244 111.172 31.2338C111.011 30.5236 110.72 29.6097 110.353 28.4565L110.341 28.4191L110.302 28.2954C110.067 27.5586 110.014 27.3581 110.017 27.1777C110.02 26.9915 110.063 26.8082 110.144 26.6405C110.222 26.4779 110.36 26.3228 110.9 25.7697L111.425 25.2319L111.453 25.2035L111.453 25.2035C112.167 24.4728 112.739 23.8864 113.14 23.3947C113.538 22.9063 113.865 22.3982 113.932 21.8193C114.032 20.9552 113.729 20.093 113.111 19.4812C112.696 19.0713 112.123 18.879 111.506 18.7466C110.886 18.6133 110.071 18.5135 109.056 18.3891L109.056 18.389L109.016 18.3842C108.311 18.2978 108.123 18.2665 107.971 18.1981C107.805 18.1236 107.657 18.0147 107.536 17.8787C107.425 17.7538 107.339 17.584 107.047 16.9381L107.03 16.902C106.578 15.9052 106.218 15.1094 105.888 14.5251C105.563 13.9495 105.193 13.4341 104.658 13.1601Z" fill="#22272F"/>
<path fill-rule="evenodd" clip-rule="evenodd" d="M131.715 13.1601C130.905 12.7458 129.946 12.7458 129.136 13.1601C128.601 13.4341 128.231 13.9495 127.906 14.5251C127.577 15.1094 127.216 15.9052 126.764 16.902L126.764 16.902L126.748 16.9381C126.455 17.584 126.369 17.7538 126.258 17.8787C126.137 18.0147 125.989 18.1236 125.823 18.1981C125.671 18.2665 125.483 18.2978 124.778 18.3842L124.739 18.389C123.723 18.5135 122.909 18.6133 122.288 18.7466C121.671 18.879 121.098 19.0713 120.684 19.4812C120.065 20.093 119.762 20.9552 119.863 21.8193C119.93 22.3982 120.257 22.9063 120.655 23.3947C121.055 23.8864 121.628 24.4728 122.341 25.2035L122.341 25.2035L122.369 25.2319L122.894 25.7697C123.434 26.3228 123.572 26.4779 123.65 26.6405C123.731 26.8082 123.775 26.9915 123.778 27.1777C123.781 27.3581 123.727 27.5586 123.493 28.2954L123.453 28.4191L123.441 28.4565C123.074 29.6097 122.784 30.5236 122.622 31.2338C122.466 31.9244 122.384 32.6003 122.618 33.1818C122.978 34.0781 123.77 34.7287 124.72 34.9075C125.336 35.0235 125.983 34.8118 126.63 34.5235C127.295 34.227 128.135 33.7639 129.194 33.1795L129.229 33.1606C129.831 32.8284 129.996 32.7461 130.155 32.7119C130.333 32.6735 130.518 32.6735 130.696 32.7119C130.855 32.7461 131.02 32.8284 131.622 33.1606L131.657 33.1794C132.716 33.7639 133.556 34.227 134.221 34.5235C134.868 34.8118 135.515 35.0235 136.131 34.9075C137.08 34.7287 137.873 34.0781 138.233 33.1817C138.467 32.6003 138.385 31.9244 138.228 31.2338C138.067 30.5236 137.777 29.6097 137.41 28.4565L137.398 28.4191L137.358 28.2954C137.124 27.5586 137.07 27.3581 137.073 27.1777C137.076 26.9915 137.12 26.8082 137.201 26.6405C137.279 26.4779 137.417 26.3228 137.957 25.7697L138.482 25.2319L138.51 25.2035L138.51 25.2035C139.223 24.4728 139.796 23.8864 140.196 23.3947C140.594 22.9063 140.921 22.3982 140.988 21.8193C141.089 20.9552 140.786 20.093 140.167 19.4812C139.753 19.0713 139.18 18.879 138.563 18.7466C137.942 18.6133 137.128 18.5135 136.112 18.3891L136.112 18.389L136.073 18.3842C135.368 18.2978 135.18 18.2665 135.028 18.1981C134.862 18.1236 134.714 18.0147 134.593 17.8787C134.482 17.7538 134.396 17.584 134.103 16.9381L134.087 16.902C133.635 15.9052 133.274 15.1094 132.945 14.5251C132.62 13.9495 132.25 13.4341 131.715 13.1601Z" fill="#22272F"/>
</mask>
<g mask="url(#mask0_91_7539)">
<rect x="4.46875" y="4.52002" width="139.951" height="38.076" fill="#F0C420"/>
</g>
</g>
<defs>
<filter id="filter0_d_91_7539" x="0.060095" y="0.783484" width="154.689" height="48.7658" filterUnits="userSpaceOnUse" color-interpolation-filters="sRGB">
<feFlood flood-opacity="0" result="BackgroundImageFix"/>
<feColorMatrix in="SourceAlpha" type="matrix" values="0 0 0 0 0 0 0 0 0 0 0 0 0 0 0 0 0 0 127 0" result="hardAlpha"/>
<feOffset dx="1.09399" dy="1.09399"/>
<feGaussianBlur stdDeviation="6.01695"/>
<feComposite in2="hardAlpha" operator="out"/>
<feColorMatrix type="matrix" values="0 0 0 0 1 0 0 0 0 1 0 0 0 0 1 0 0 0 0.25 0"/>
<feBlend mode="normal" in2="BackgroundImageFix" result="effect1_dropShadow_91_7539"/>
<feBlend mode="normal" in="SourceGraphic" in2="effect1_dropShadow_91_7539" result="shape"/>
</filter>
</defs>
</svg>
