<svg width="28" height="28" viewBox="0 0 28 28" fill="none" xmlns="http://www.w3.org/2000/svg">
<rect x="0.458349" y="0.771322" width="26.7648" height="26.5285" rx="13.2642" fill="#EDEDED"/>
<path d="M11.8447 15.4331C11.8447 16.2064 12.4382 16.8299 13.1755 16.8299H14.6803C15.3218 16.8299 15.8433 16.2844 15.8433 15.6129C15.8433 14.8815 15.5256 14.6237 15.052 14.4559L12.636 13.6166C12.1624 13.4487 11.8447 13.1909 11.8447 12.4595C11.8447 11.7881 12.3662 11.2426 13.0077 11.2426H14.5124C15.2498 11.2426 15.8433 11.866 15.8433 12.6394" stroke="#016918" stroke-width="0.899254" stroke-linecap="round" stroke-linejoin="round"/>
<path d="M13.8412 10.4388V17.6328" stroke="#016918" stroke-width="0.899254" stroke-linecap="round" stroke-linejoin="round"/>
<path d="M13.8397 20.0312C17.1506 20.0312 19.8347 17.3472 19.8347 14.0362C19.8347 10.7252 17.1506 8.04117 13.8397 8.04117C10.5287 8.04117 7.84465 10.7252 7.84465 14.0362C7.84465 17.3472 10.5287 20.0312 13.8397 20.0312Z" stroke="#016918" stroke-width="0.899254" stroke-linecap="round" stroke-linejoin="round"/>
<rect x="0.458349" y="0.771322" width="26.7648" height="26.5285" rx="13.2642" stroke="#E2E2E2" stroke-width="0.648966"/>
</svg>
