<svg version="1.1" id="Layer_1" xmlns="http://www.w3.org/2000/svg" xmlns:xlink="http://www.w3.org/1999/xlink" x="0px" y="0px"
	 viewBox="0 0 152 36" style="enable-background:new 0 0 152 36;" xml:space="preserve">
<style type="text/css">
	.st0{fill:#2D2D2D;}
	.st1{fill:#FFFFFF;}
</style>
<g>
	<g>
		<path class="st0" d="M114.5,8.4c-8,0-8.2,7.6-8.2,7.6v6.1c0,0,0.2,2,2.6,2s2.6-2,2.6-2V16c0,0,0.5-2.2,2.5-2.3
			c2.5,0,2.7,2.3,2.7,2.3v6.1c0,0,0.6,2,2.8,2c2.2,0,2.5-2,2.5-2V16C122.1,16,121.5,8.4,114.5,8.4z"/>
		<path class="st0" d="M102.7,6.9c0.9-0.4,1.6-1.3,1.6-2.4c0-1.4-1.2-2.6-2.6-2.6s-2.6,1.2-2.6,2.6c0,1.1,0.7,2,1.6,2.4
			c0.2,0.2,0.3,0.5,0.3,0.9c0,0.3-0.1,0.6-0.3,0.8C99.7,9,99.1,9.9,99.1,11v10.6c0,1.4,1.2,2.6,2.6,2.6s2.6-1.2,2.6-2.6V11
			c0-1.1-0.7-2-1.6-2.4c-0.1-0.2-0.3-0.5-0.3-0.8C102.4,7.4,102.5,7.2,102.7,6.9z"/>
		<path class="st0" d="M140,19.2l-6.5-3.7l5.2-5.7c1-1.1,0.9-2.7-0.2-3.7c-1.1-1-2.7-0.9-3.7,0.2l-5.1,5.6V3.7
			c0-1.4-1.2-2.6-2.6-2.6s-2.6,1.2-2.6,2.6v17.9c0,1.4,1.2,2.6,2.6,2.6s2.6-1.2,2.6-2.6v-2c0.1,0,0.1-0.1,0.2-0.1l7.4,4.3
			c1.2,0.7,2.8,0.3,3.5-1C141.6,21.5,141.2,19.9,140,19.2z"/>
	</g>
	<g>
		<path class="st1" d="M34.3,8.4c-2.6,0-4.4,0.8-5.6,1.9c-1.1-1.1-2.7-1.9-5-1.9c-8,0-8.2,7.6-8.2,7.6v6.1c0,0,0.2,2,2.6,2
			s2.6-2,2.6-2V16c0,0,0.5-2.2,2.5-2.3c2.5,0,2.7,2.3,2.7,2.3v6.1c0,0,0,0.1,0.1,0.3c0.1,0.6,0.7,1.8,2.6,1.8c0,0,0,0,0,0
			c0,0,0,0,0,0c0.4,0,0.7-0.1,1-0.2c1.4-0.5,1.5-1.9,1.5-1.9V16c0,0,0.5-2.2,2.5-2.3c2.5,0,2.7,2.3,2.7,2.3v6.1c0,0,0.6,2,2.8,2
			s2.5-2,2.5-2V16C41.9,16,41.4,8.4,34.3,8.4z"/>
		<path class="st1" d="M51.6,8.1c-4.5,0-8.2,3.7-8.2,8.2s3.7,8.2,8.2,8.2s8.2-3.7,8.2-8.2S56.1,8.1,51.6,8.1z M51.6,19.3
			c-1.6,0-3-1.3-3-3s1.3-3,3-3s3,1.3,3,3S53.2,19.3,51.6,19.3z"/>
		<path class="st1" d="M12.7,8.3c0.2-0.9,0.7-1.8,1.4-2.3c0.7-0.6,1.7-0.9,2.6-0.9c0.6,0,1.2,0.2,1.8,0.5c0.5,0.3,1.1,0.2,1.4-0.1
			c0.4-0.4,0.3-1-0.1-1.3c-0.9-0.6-1.9-0.9-3-1c-1.4-0.1-2.8,0.4-3.9,1.3c-1.1,0.9-1.8,2.1-2.1,3.5c-0.2,1.1-0.1,2.1,0.3,3.1
			c0.2,0.5,0.8,0.6,1.2,0.4c0.5-0.3,0.6-0.8,0.5-1.3C12.6,9.6,12.6,8.9,12.7,8.3z"/>
		<path class="st1" d="M15.7,7.9c0.3-0.3,0.7-0.4,1.1-0.4c0.2,0,0.3,0,0.4,0.1c0.4,0.1,0.9,0.1,1.2-0.2c0.3-0.3,0.3-0.8-0.1-1
			C18,6.2,17.5,6,16.9,6c-0.8,0-1.6,0.2-2.2,0.7c-0.6,0.5-1,1.2-1.2,2c-0.1,0.5-0.1,1,0.1,1.5c0.1,0.4,0.6,0.5,1,0.3
			c0.4-0.2,0.5-0.7,0.5-1.1c0-0.1,0-0.3,0-0.4C15.2,8.6,15.4,8.2,15.7,7.9z"/>
		<path class="st1" d="M17.8,8.1c-0.5,0-1,0.1-1.4,0.4c-0.4,0.3-0.6,0.7-0.7,1.2c-0.1,0.3,0,0.6,0,0.9c0.1,0.3,0.4,0.4,0.7,0.2
			c0.3-0.1,0.3-0.5,0.3-0.8c0-0.1,0-0.1,0-0.2c0-0.2,0.2-0.5,0.4-0.6c0.2-0.2,0.4-0.2,0.7-0.2c0.1,0,0.1,0,0.2,0
			c0.3,0.1,0.6,0.1,0.8-0.1c0.2-0.2,0.2-0.5-0.1-0.7C18.4,8.2,18.1,8.2,17.8,8.1z"/>
		<path class="st1" d="M69.5,8.1c-1,0-2,0.2-3,0.6v-5c0-1.4-1.2-2.6-2.6-2.6s-2.6,1.2-2.6,2.6v17.9c0,1.4,1.2,2.6,2.6,2.6
			c0.7,0,1.3-0.3,1.7-0.7c1.1,0.6,2.4,1,3.8,1c4.5,0,8.2-3.7,8.2-8.2S74,8.1,69.5,8.1z M69.5,19.3c-1.6,0-3-1.3-3-3s1.3-3,3-3
			s3,1.3,3,3S71.1,19.3,69.5,19.3z"/>
		<path class="st1" d="M93.5,28.2c0.9-0.4,1.6-1.3,1.6-2.4V11.1c0-0.2,0-0.3,0-0.5v-0.2c0,0-0.2-2-2.6-2s-2.6,2-2.6,2v6.1
			c0,0-0.5,2.2-2.5,2.3c-2.5,0-2.7-2.3-2.7-2.3v-6.1c0,0-0.6-2-2.8-2c-2.2,0-2.5,2-2.5,2v6.1c0,0,0.6,7.6,7.6,7.6
			c1.2,0,2.2-0.2,3.1-0.4v2.1c0,1.1,0.7,2,1.6,2.4c0.1,0.2,0.3,0.5,0.3,0.8c0,0.3-0.1,0.6-0.3,0.9c-0.9,0.4-1.6,1.3-1.6,2.4
			c0,1.4,1.2,2.6,2.6,2.6s2.6-1.2,2.6-2.6c0-1.1-0.7-2-1.6-2.4c-0.2-0.2-0.3-0.5-0.3-0.9C93.2,28.8,93.3,28.5,93.5,28.2z"/>
	</g>
</g>
</svg>
